<svg width="1086" height="476" viewBox="0 0 1086 476" fill="none" xmlns="http://www.w3.org/2000/svg">
<line y1="0.5" x2="1085" y2="0.5" stroke="#301FF0"/>
<line y1="203.938" x2="1085" y2="203.938" stroke="#301FF0"/>
<line y1="68.3125" x2="1085" y2="68.3125" stroke="#301FF0"/>
<line y1="271.75" x2="1085" y2="271.75" stroke="#301FF0"/>
<line y1="407.375" x2="1085" y2="407.375" stroke="#301FF0"/>
<line y1="136.125" x2="1085" y2="136.125" stroke="#301FF0"/>
<line y1="339.562" x2="1085" y2="339.562" stroke="#301FF0"/>
<line y1="475.188" x2="1085" y2="475.188" stroke="#301FF0"/>
<line x1="0.5" y1="1" x2="0.500021" y2="475.688" stroke="#301FF0"/>
<line x1="68.3125" y1="1" x2="68.3125" y2="475.688" stroke="#301FF0"/>
<line x1="610.812" y1="1" x2="610.812" y2="475.688" stroke="#301FF0"/>
<line x1="339.562" y1="1" x2="339.563" y2="475.688" stroke="#301FF0"/>
<line x1="882.062" y1="1" x2="882.062" y2="475.688" stroke="#301FF0"/>
<line x1="136.125" y1="1" x2="136.125" y2="475.688" stroke="#301FF0"/>
<line x1="678.625" y1="1" x2="678.625" y2="475.688" stroke="#301FF0"/>
<line x1="407.375" y1="1" x2="407.375" y2="475.688" stroke="#301FF0"/>
<line x1="949.875" y1="1" x2="949.875" y2="475.688" stroke="#301FF0"/>
<line x1="203.938" y1="1" x2="203.938" y2="475.688" stroke="#301FF0"/>
<line x1="746.438" y1="1" x2="746.438" y2="475.688" stroke="#301FF0"/>
<line x1="475.188" y1="1" x2="475.188" y2="475.688" stroke="#301FF0"/>
<line x1="1017.69" y1="1" x2="1017.69" y2="475.688" stroke="#301FF0"/>
<line x1="271.75" y1="1" x2="271.75" y2="475.688" stroke="#301FF0"/>
<line x1="814.25" y1="1" x2="814.25" y2="475.688" stroke="#301FF0"/>
<line x1="543" y1="1" x2="543" y2="475.688" stroke="#301FF0"/>
<line x1="1085.5" y1="1" x2="1085.5" y2="475.688" stroke="#301FF0"/>
</svg>
