<svg width="40" height="40" viewBox="0 0 40 40" fill="none" xmlns="http://www.w3.org/2000/svg">
<path d="M20.0002 3.3999C10.8335 3.3999 3.3335 10.8832 3.3335 20.0999C3.3335 28.4332 9.4335 35.3499 17.4002 36.5999V24.9332H13.1668V20.0999H17.4002V16.4166C17.4002 12.2332 19.8835 9.93324 23.7002 9.93324C25.5168 9.93324 27.4168 10.2499 27.4168 10.2499V14.3666H25.3168C23.2502 14.3666 22.6002 15.6499 22.6002 16.9666V20.0999H27.2335L26.4835 24.9332H22.6002V36.5999C26.5276 35.9796 30.1038 33.9758 32.6834 30.95C35.2629 27.9242 36.6758 24.076 36.6668 20.0999C36.6668 10.8832 29.1668 3.3999 20.0002 3.3999Z" fill="black"/>
</svg>
