<svg width="828" height="328" viewBox="0 0 828 328" fill="none" xmlns="http://www.w3.org/2000/svg">
<g clip-path="url(#clip0_422_395)">
<path d="M324.373 141.328C329.914 134.436 332.716 125.794 332.716 115.609C332.716 105.424 329.914 96.808 324.373 89.8894C318.833 82.9709 309.948 77.8527 297.937 74.3806C285.927 70.9085 270.21 69.2367 250.825 69.2367C231.441 69.2367 215.595 70.9728 203.726 74.3806C191.858 77.7884 182.805 83.0866 177.29 89.9409C171.776 96.7951 168.935 105.475 168.935 115.66C168.935 125.845 171.75 134.474 177.29 141.38C182.831 148.285 191.703 153.468 203.726 156.94C215.75 160.412 231.441 162.084 250.825 162.084C270.21 162.084 286.056 160.348 297.937 156.94C309.819 153.532 318.846 148.183 324.373 141.328ZM289.156 126.861C285.707 129.575 280.71 131.491 274.317 132.558C266.543 133.729 258.687 134.275 250.825 134.191C242.857 134.266 234.894 133.72 227.011 132.558C220.373 131.491 215.143 129.562 211.514 126.835C209.775 125.547 208.385 123.85 207.468 121.895C206.55 119.94 206.135 117.789 206.257 115.635C206.133 113.48 206.549 111.329 207.466 109.374C208.384 107.419 209.774 105.721 211.514 104.434C215.181 101.708 220.412 99.7786 227.011 98.7112C234.893 97.5393 242.856 96.9889 250.825 97.0652C258.688 96.9795 266.544 97.5299 274.317 98.7112C280.774 99.7786 285.707 101.695 289.156 104.408C292.604 107.121 294.102 110.709 294.102 115.635C294.102 120.56 292.488 124.225 289.156 126.861Z" fill="#301FF0"/>
<path d="M490.751 135.413C493.799 129.272 495.293 122.482 495.103 115.635V71.9115H459.085V109.668C459.085 116.355 457.431 121.499 454.19 124.932C450.948 128.366 446.08 130.861 439.894 132.172C432.441 133.613 424.859 134.29 417.267 134.191C409.568 134.303 401.878 133.626 394.318 132.172C388.184 130.886 383.418 128.43 380.112 124.945C376.806 121.46 375.282 116.355 375.282 109.668V71.873H339.38V115.596C339.186 122.424 340.629 129.2 343.59 135.361C346.315 140.719 350.303 145.339 355.213 148.826C360.462 152.469 366.291 155.204 372.454 156.914C379.388 158.869 386.485 160.19 393.66 160.862C401.228 161.621 409.157 162.007 417.229 162.007C424.815 162.009 432.397 161.627 439.945 160.862C447.083 160.19 454.145 158.881 461.048 156.953C467.301 155.222 473.233 152.495 478.611 148.877C483.706 145.449 487.876 140.825 490.751 135.413Z" fill="#301FF0"/>
<path d="M0 192.536H52.6007V252.205H88.5547V192.536H141.143V164.694H0V192.536Z" fill="#301FF0"/>
<path d="M335.015 249.697C346.883 253.118 362.742 254.841 382.114 254.841C401.486 254.841 417.345 253.105 429.226 249.697C441.108 246.289 450.135 241.004 455.662 234.137C461.19 227.27 464.018 218.615 464.018 208.417C464.018 198.22 461.203 189.617 455.662 182.698C450.122 175.78 441.25 170.597 429.226 167.138C417.203 163.679 401.499 161.994 382.114 161.994C362.73 161.994 346.883 163.73 335.015 167.138C323.147 170.546 314.094 175.831 308.579 182.698C303.065 189.565 300.223 198.22 300.223 208.417C300.223 218.615 303.039 227.231 308.579 234.137C314.119 241.043 322.992 246.238 335.015 249.697ZM342.764 197.242C346.431 194.516 351.649 192.587 358.261 191.52C366.144 190.359 374.107 189.813 382.075 189.887C389.937 189.804 397.793 190.35 405.567 191.52C411.96 192.587 416.957 194.503 420.406 197.217C423.854 199.93 425.352 203.531 425.352 208.443C425.352 213.356 423.738 217.046 420.406 219.67C417.074 222.293 411.96 224.312 405.567 225.367C397.794 226.549 389.938 227.099 382.075 227.013C374.106 227.09 366.143 226.539 358.261 225.367C351.623 224.299 346.406 222.383 342.764 219.644C341.115 218.275 339.789 216.563 338.879 214.627C337.969 212.692 337.497 210.58 337.497 208.443C337.497 206.306 337.969 204.195 338.879 202.259C339.789 200.324 341.115 198.611 342.764 197.242Z" fill="#301FF0"/>
<path d="M506.352 230.33H564.144C570.437 230.348 576.726 230.034 582.986 229.392C588.381 228.903 593.664 227.566 598.639 225.431C603.127 223.47 606.911 220.196 609.487 216.043C612.07 211.864 613.361 206.193 613.361 199.171C613.361 192.15 612.07 186.312 609.487 181.798C606.95 177.345 603.221 173.681 598.716 171.214C593.824 168.62 588.521 166.88 583.038 166.07C576.778 165.112 570.452 164.644 564.118 164.669H470.398V252.179H506.352V230.33ZM506.352 193.86H569.336C571.45 193.796 573.555 194.164 575.522 194.94C575.999 195.159 577.459 195.789 577.459 199.171C577.459 202.553 575.986 203.106 575.496 203.338C573.547 204.148 571.446 204.534 569.336 204.47H506.352V193.86Z" fill="#301FF0"/>
<path d="M657.348 164.694H621.394V252.205H657.348V164.694Z" fill="#301FF0"/>
<path d="M290.77 252.205V232.761C290.77 228.504 289.478 225.161 286.895 222.833C284.79 220.904 281.497 219.515 276.861 218.628C279.038 217.928 281.137 217.006 283.124 215.876C286.421 214.01 289.131 211.267 290.951 207.955C292.967 204.024 293.945 199.647 293.792 195.236C293.792 187.61 291.764 181.464 287.787 176.988C283.506 172.362 277.97 169.07 271.85 167.511C264.633 165.587 257.185 164.657 249.715 164.746H145.508V252.256H181.449V228.337H232.19C237.393 228.232 242.598 228.495 247.765 229.122C251.549 229.7 253.008 230.703 253.55 231.449C254.516 233.018 254.967 234.847 254.842 236.683V252.205H290.77ZM249.766 203.544H181.449V193.86H249.766C251.879 193.795 253.98 194.186 255.927 195.005C256.588 195.3 257.136 195.8 257.49 196.43C257.843 197.06 257.984 197.787 257.89 198.503C257.89 201.075 256.753 201.936 255.901 202.361C253.972 203.213 251.875 203.617 249.766 203.544Z" fill="#301FF0"/>
<path d="M790.625 214.924C789.369 217.328 787.504 219.363 785.214 220.827C782.528 222.705 778.421 224.209 772.997 225.315C765.513 226.595 757.924 227.163 750.332 227.013C741.127 227.168 731.926 226.51 722.837 225.045C716.006 223.759 710.969 221.779 707.882 219.117C706.427 217.894 705.27 216.358 704.498 214.625C703.726 212.892 703.36 211.007 703.427 209.112C703.331 207.07 703.683 205.032 704.459 203.14C705.236 201.247 706.417 199.546 707.921 198.155C711.008 195.339 716.031 193.23 722.85 191.918C731.929 190.402 741.128 189.722 750.332 189.887C757.96 189.723 765.585 190.335 773.088 191.713C778.55 192.909 782.67 194.542 785.343 196.574C787.767 198.323 789.647 200.716 790.767 203.479L791.09 204.341H828.039L827.961 202.939C827.653 194.54 824.251 186.548 818.405 180.486C812.58 174.416 803.902 169.761 792.576 166.662C781.25 163.563 767.199 162.032 750.332 162.032C738.67 161.946 727.016 162.703 715.463 164.296C706.298 165.482 697.366 168.049 688.975 171.909C682.061 175.109 676.167 180.146 671.941 186.466C668.067 192.536 666.001 200.162 666.001 209.138C666.001 218.114 668.002 225.675 671.954 231.616C676.208 237.787 682.12 242.64 689.014 245.621C697.435 249.293 706.358 251.698 715.489 252.758C727.053 254.216 738.702 254.908 750.358 254.828C767.25 254.828 781.456 253.388 792.563 250.546C803.669 247.704 812.451 243.267 818.275 237.468C824.139 231.632 827.551 223.792 827.819 215.542V214.153H790.987L790.625 214.924Z" fill="#301FF0"/>
<path d="M45.2007 148.993C49.5883 152.09 54.4156 154.517 59.5229 156.194C65.7318 158.267 72.1289 159.731 78.6235 160.566C86.4026 161.587 94.2428 162.077 102.089 162.032C117.031 162.032 129.313 160.991 138.598 158.946C147.884 156.901 155.064 153.584 159.494 149.173C161.748 146.886 163.511 144.166 164.677 141.18C165.842 138.193 166.386 135.002 166.274 131.799C166.36 127.962 165.314 124.184 163.265 120.933C160.877 117.543 157.559 114.909 153.708 113.346C148.417 111.171 142.85 109.73 137.165 109.063C129.065 108.055 120.906 107.591 112.744 107.674C104.13 107.674 96.9879 107.584 91.4863 107.417C87.1962 107.339 82.9142 107.013 78.6622 106.44C76.5887 106.245 74.5721 105.655 72.7215 104.704C72.3332 104.514 72.0064 104.219 71.778 103.853C71.5497 103.487 71.4292 103.064 71.4301 102.633C71.4301 100.782 73.3414 99.3928 77.1254 98.4926C81.4905 97.4638 88.3093 96.9366 97.4011 96.9366C106.493 96.9366 113.648 97.7339 118.607 99.1999C123.114 100.576 125.581 102.466 125.942 104.832L126.11 105.951H163.084V104.665C163.084 93.0915 157.402 84.2183 146.205 78.1099C135.279 72.1559 119.317 69.1081 98.7701 69.1081C84.7966 69.1081 72.9411 70.2141 63.6426 72.3874C54.3442 74.5607 46.97 78.0199 42.2562 82.5337C39.8753 84.7987 37.998 87.5358 36.7456 90.5682C35.4932 93.6007 34.8935 96.861 34.9854 100.139C34.8888 103.967 35.9949 107.73 38.1494 110.902C40.629 114.175 43.9607 116.71 47.7836 118.232C52.9737 120.338 58.433 121.715 64.0042 122.322C71.6834 123.237 79.4132 123.667 87.147 123.608C98.925 123.608 108.223 123.775 114.771 124.135C121.319 124.495 125.658 125.099 128.099 125.974C130.075 126.694 131.082 127.581 131.082 128.636C131.096 129.26 130.937 129.876 130.623 130.416C130.309 130.955 129.851 131.399 129.3 131.696C127.892 132.597 125.335 133.24 121.693 133.625C118.051 134.011 112.653 134.204 106.054 134.204C100.167 134.253 94.2833 133.926 88.4385 133.227C84.3871 132.808 80.4093 131.857 76.6088 130.398C74.0259 129.279 72.3857 127.967 71.895 126.54L71.5851 125.627H32.9836V126.913C32.9455 131.2 34.0412 135.422 36.1606 139.155C38.4445 143.032 41.5251 146.384 45.2007 148.993Z" fill="#301FF0"/>
<path d="M97.6336 56.6728C100.147 53.8287 102.914 51.2162 105.899 48.8669C108.954 46.4089 112.178 44.1658 115.546 42.1542C129.145 33.8854 144.836 28.2914 160.876 24.2791C177.12 20.3541 193.63 17.612 210.274 16.0746C227.063 14.4672 243.852 13.7856 260.782 13.8499C294.701 14.059 328.566 16.5466 362.148 21.2957C395.871 25.962 429.316 32.4355 462.339 40.6881C495.206 48.9184 525.052 56.1198 556.873 67.8993H569.529C566.055 66.4462 562.581 64.993 559.081 63.5784C527.299 50.7187 497.453 42.3342 464.418 32.9595C431.337 23.5631 397.76 15.9943 363.84 10.2878C346.87 7.47149 329.797 5.14388 312.634 3.42068C295.471 1.69748 278.243 0.462945 260.95 0.128593C243.658 -0.20576 226.327 0.128593 208.982 1.51744C191.536 2.78157 174.217 5.4044 157.182 9.36187C148.559 11.4276 140.068 14.0041 131.754 17.0777C123.264 20.1588 115.087 24.0341 107.332 28.6515C103.362 31.0205 99.5609 33.6587 95.9547 36.5473C92.3774 39.3893 78.2618 49.2527 72.954 66.6005C79.1083 65.7711 85.3036 65.2774 91.5121 65.1216C93.191 61.7267 94.6503 60.0549 97.6336 56.6728Z" fill="#301FF0"/>
<path d="M499.339 99.7271H551.94V159.383H587.894V99.7271H640.495V71.873H499.339V99.7271Z" fill="#301FF0"/>
<path d="M681.123 129.022H763.673V159.383H799.627V71.873H763.673V101.18H681.123V71.873H645.169V159.383H681.123V129.022Z" fill="#301FF0"/>
<path d="M774.211 261.747C772.08 269.655 769.226 274.298 763.763 280.496C761.018 283.619 757.992 286.486 754.723 289.061C751.451 291.689 747.999 294.086 744.392 296.236C729.979 304.917 713.784 310.511 697.357 314.613C680.796 318.559 663.959 321.25 646.99 322.663C630.034 324.168 612.974 324.721 595.926 324.541C581.333 324.374 566.753 323.692 552.185 322.612C549.744 322.393 547.29 322.162 544.85 321.904C527.867 320.207 510.962 317.892 494.147 315.115C460.537 309.429 427.267 301.907 394.486 292.584C361.747 283.324 329.534 272.309 297.989 259.586C293.288 257.696 294.748 258.185 290.55 256.397H257.308C300.972 274.877 345.76 288.456 392.549 300.223C425.835 308.555 459.547 315.093 493.54 319.808C513.3 322.56 533.145 324.575 553.076 325.852C567.347 326.997 581.669 327.743 596.004 327.936C613.16 328.219 630.319 327.639 647.417 326.2C664.561 324.82 681.575 322.146 698.313 318.201C714.998 314.086 731.516 308.453 746.458 299.516C750.197 297.285 753.779 294.802 757.177 292.083C760.622 289.373 763.816 286.36 766.721 283.081C772.532 276.523 775.761 271.34 778.06 262.763C778.181 261.992 778.254 261.215 778.279 260.435C776.988 260.602 775.696 260.757 774.301 260.898C774.29 261.183 774.26 261.466 774.211 261.747Z" fill="#301FF0"/>
</g>
<defs>
<clipPath id="clip0_422_395">
<rect width="828" height="328" fill="white"/>
</clipPath>
</defs>
</svg>
